
v  14.1488 25.3602 21.3144
v  15.2913 25.3602 19.5551
v  14.7399 25.0896 20.4477
v  13.6764 26.0993 21.9232
v  15.6553 26.0993 18.8760
v  13.4492 27.1089 22.1108
v  15.7342 27.1089 18.5922
v  13.5282 28.1186 21.8270
v  15.5071 28.1186 18.7798
v  13.8922 28.8577 21.1478
v  15.0347 28.8577 19.3885
v  14.4436 29.1282 20.2552
v  18.8874 25.0392 23.1411
v  19.5770 25.3719 22.0256
v  20.0330 26.2810 21.1774
v  20.1332 27.5229 20.8236
v  19.8508 28.7648 21.0590
v  19.2613 29.6739 21.8207
v  18.5229 30.0067 22.9044
v  17.8332 29.6739 24.0198
v  17.3772 28.7648 24.8680
v  17.2770 27.5229 25.2218
v  17.5594 26.2810 24.9864
v  18.1489 25.3719 24.2248
v  19.3593 29.5700 21.9669
v  18.6598 29.8852 22.9933
v  18.0066 29.5700 24.0498
v  19.9169 28.7099 21.2463
v  17.5751 28.7099 24.8523
v  20.1839 27.5362 21.0237
v  17.4804 27.5362 25.1867
v  20.0892 26.3625 21.3581
v  17.7474 26.3625 24.9642
v  19.6577 25.5023 22.1607
v  18.3051 25.5023 24.2436
v  19.0045 25.1872 23.2171
# 36 vertices

vn -0.8355 -0.0872 -0.5426
vn -0.0086 -0.9999 -0.0056
vn 0.2438 -0.8743 -0.4197
vn 0.1649 -0.9690 0.1841
vn 0.2428 -0.8759 -0.4170
vn 0.3446 -0.7263 -0.5948
vn 0.3454 -0.7215 -0.6001
vn 0.4539 -0.0086 -0.8910
vn 0.4554 -0.2772 -0.8460
vn 0.4564 -0.2737 -0.8466
vn 0.4531 -0.0097 -0.8914
vn 0.4190 0.2561 -0.8711
vn 0.4175 0.2595 -0.8708
vn 0.1222 0.8578 -0.4993
vn 0.2914 0.9040 -0.3127
vn 0.2456 0.7060 -0.6643
vn 0.2413 0.7104 -0.6612
vn -0.1491 0.9841 -0.0968
vn 0.1766 0.9776 0.1147
vn -0.4064 0.8578 0.3147
vn -0.1672 0.9040 0.3934
vn -0.5070 0.7060 0.4945
vn -0.5059 0.7104 0.4893
vn -0.2739 0.0254 0.9614
vn -0.6260 0.2567 0.7363
vn -0.6301 -0.0087 0.7764
vn -0.1152 0.4081 0.9056
vn -0.5884 -0.2744 0.7606
vn -0.0605 -0.3332 0.9409
vn -0.4033 -0.7263 0.5567
vn -0.4077 -0.7215 0.5596
vn -0.2843 -0.8743 0.3935
vn -0.0387 -0.8785 0.4762
vn 0.8949 0.3175 0.3136
vn 0.8355 0.0872 0.5426
vn 0.9384 0.3144 0.1431
vn 0.9920 0.0775 0.0997
vn 0.9732 -0.1595 0.1657
vn 0.8918 -0.3242 0.3157
vn 0.8565 -0.2351 0.4594
vn 0.7010 -0.6743 0.2322
vn 0.8025 -0.5898 0.0899
vn 0.4972 -0.6743 0.5459
vn 0.2480 -0.3234 0.9132
vn 0.3073 -0.4861 0.8181
vn 0.1661 0.0591 0.9843
vn 0.1919 0.4410 0.8768
vn 0.2275 0.6009 0.7663
vn 0.3899 0.7881 0.4762
vn 0.5006 0.8023 0.3251
vn 0.5936 0.7881 0.1625
vn 0.8807 0.4368 -0.1831
vn 0.7926 0.6009 -0.1038
vn 0.9668 0.0591 -0.2486
vn 0.9362 -0.3193 -0.1470
# 55 vertex normals

vt 0.7578 0.2208 0.0000
vt 0.7162 0.0894 0.0000
vt 0.7575 0.1497 0.0000
vt 0.7170 0.2838 0.0000
vt 0.6449 0.0561 0.0000
vt 0.6459 0.3217 0.0000
vt 0.5628 0.0587 0.0000
vt 0.5638 0.3243 0.0000
vt 0.4918 0.0966 0.0000
vt 0.4925 0.2910 0.0000
vt 0.4509 0.1596 0.0000
vt 0.4512 0.2307 0.0000
vt 0.3718 0.8346 0.0000
vt 0.3670 0.7531 0.0000
vt 0.7563 0.8205 0.0000
vt 0.7503 0.7187 0.0000
vt 0.7413 0.6443 0.0000
vt 0.3597 0.6936 0.0000
vt 0.0549 0.3485 0.0000
vt 0.3776 0.4505 0.0000
vt 0.0398 0.4254 0.0000
vt 0.3964 0.3560 0.0000
vt 0.0464 0.2690 0.0000
vt 0.3858 0.2581 0.0000
vt 0.0343 0.0818 0.0000
vt 0.3823 0.1477 0.0000
vt 0.0188 0.1567 0.0000
vt 0.4145 0.0020 0.0000
vt 0.4151 0.0839 0.0000
vt 0.0041 0.0139 0.0000
vt 0.0151 0.5488 0.0000
vt 0.3732 0.5486 0.0000
vt 0.0169 0.6261 0.0000
vt 0.3755 0.6451 0.0000
vt 0.0168 0.4716 0.0000
vt 0.3753 0.4521 0.0000
vt 0.3825 0.2568 0.0000
vt 0.0283 0.2550 0.0000
vt 0.0275 0.1785 0.0000
vt 0.3815 0.1620 0.0000
vt 0.4514 0.4798 0.0000
vt 0.7551 0.4074 0.0000
vt 0.7679 0.4897 0.0000
vt 0.4354 0.3786 0.0000
vt 0.7556 0.5739 0.0000
vt 0.4361 0.5834 0.0000
vt 0.7543 0.9974 0.0000
vt 0.3701 0.9761 0.0000
vt 0.3729 0.9162 0.0000
vt 0.7577 0.9225 0.0000
vt 0.0129 0.8692 0.0000
vt 0.0104 0.7853 0.0000
vt 0.0562 0.7121 0.0000
vt 0.0628 0.9414 0.0000
vt 0.1377 0.6695 0.0000
vt 0.1467 0.9826 0.0000
vt 0.2332 0.6687 0.0000
vt 0.2421 0.9818 0.0000
vt 0.3171 0.7098 0.0000
vt 0.3237 0.9392 0.0000
vt 0.3670 0.7821 0.0000
vt 0.3694 0.8660 0.0000
vt 0.6566 0.5767 0.0000
vt 0.7483 0.5797 0.0000
vt 0.7503 0.5942 0.0000
vt 0.6534 0.5909 0.0000
vt 0.6560 0.3352 0.0000
vt 0.6533 0.3208 0.0000
vt 0.7503 0.3214 0.0000
vt 0.7478 0.3357 0.0000
vt 0.4202 0.5779 0.0000
vt 0.3935 0.6617 0.0000
vt 0.3799 0.6519 0.0000
vt 0.4347 0.4800 0.0000
vt 0.4195 0.3844 0.0000
vt 0.3923 0.3069 0.0000
vt 0.3787 0.3166 0.0000
vt 0.3872 0.4571 0.0000
vt 0.3853 0.5486 0.0000
vt 0.3874 0.6400 0.0000
vt 0.0547 0.9544 0.0000
vt 0.0020 0.8781 0.0000
vt 0.1435 0.9980 0.0000
vt 0.2445 0.9971 0.0000
vt 0.3307 0.9521 0.0000
# 85 texture coords

g Dop
usemtl 02___Default
s 1
f 1/1/1 2/2/1 3/3/1 
f 4/4/1 2/2/1 1/1/1 
f 4/4/1 5/5/1 2/2/1 
f 6/6/1 5/5/1 4/4/1 
f 6/6/1 7/7/1 5/5/1 
f 8/8/1 7/7/1 6/6/1 
f 8/8/1 9/9/1 7/7/1 
f 10/10/1 9/9/1 8/8/1 
f 10/10/1 11/11/1 9/9/1 
f 12/12/1 11/11/1 10/10/1 
f 3/13/2 2/14/3 13/15/4 
f 2/14/3 14/16/5 13/15/4 
f 15/17/6 14/16/5 2/14/3 
f 5/18/7 15/17/6 2/14/3 
f 7/19/8 15/20/9 5/21/10 
f 7/19/8 16/22/11 15/20/9 
f 9/23/12 17/24/13 7/19/8 
f 17/24/13 16/22/11 7/19/8 
f 11/25/14 18/26/15 9/27/16 
f 18/28/15 17/29/17 9/30/16 
f 12/31/18 19/32/19 11/33/14 
f 19/32/19 18/34/15 11/33/14 
f 19/32/19 12/31/18 10/35/20 
f 20/36/21 19/32/19 10/35/20 
f 20/37/21 10/38/20 8/39/22 
f 21/40/23 20/37/21 8/39/22 
f 22/41/24 8/42/25 6/43/26 
f 21/44/27 8/42/25 22/41/24 
f 22/41/24 6/43/26 4/45/28 
f 23/46/29 22/41/24 4/45/28 
f 23/47/30 4/48/31 1/49/32 
f 24/50/33 23/47/30 1/49/32 
f 24/50/33 1/49/32 13/15/4 
f 1/49/32 3/13/2 13/15/4 
f 25/51/34 26/52/35 27/53/35 
f 25/51/34 27/53/35 28/54/36 
f 28/54/36 27/53/35 29/55/35 
f 28/54/36 29/55/35 30/56/37 
f 30/56/37 29/55/35 31/57/35 
f 30/56/37 31/57/35 32/58/38 
f 32/58/38 31/57/35 33/59/35 
f 32/58/38 33/59/35 34/60/39 
f 34/60/39 35/61/35 36/62/40 
f 34/60/39 33/59/35 35/61/35 
f 34/63/39 36/64/40 13/65/41 
f 14/66/42 34/63/39 13/65/41 
f 35/67/43 24/68/33 13/69/4 
f 36/70/43 35/67/43 13/69/4 
f 33/71/44 23/46/29 24/72/45 
f 35/73/45 33/71/44 24/72/45 
f 31/74/46 22/41/24 33/71/44 
f 33/71/44 22/41/24 23/46/29 
f 29/75/47 21/44/27 22/41/24 
f 31/74/46 29/75/47 22/41/24 
f 20/76/48 21/44/27 29/75/47 
f 27/77/48 20/76/48 29/75/47 
f 19/32/19 20/36/21 27/78/49 
f 26/79/50 19/32/19 27/78/49 
f 18/34/15 19/32/19 25/80/51 
f 19/32/19 26/79/50 25/80/51 
f 17/81/52 18/82/53 28/54/36 
f 18/82/53 25/51/34 28/54/36 
f 17/81/52 30/56/37 16/83/54 
f 17/81/52 28/54/36 30/56/37 
f 30/56/37 32/58/38 15/84/55 
f 16/83/54 30/56/37 15/84/55 
f 32/58/38 34/60/39 14/85/42 
f 15/84/55 32/58/38 14/85/42 
# 68 faces

