v  10.2351 33.4643 13.8571
v  10.3028 33.1601 13.8226
v  10.5738 33.0081 13.6845
v  10.3706 33.8444 13.7881
v  11.0480 33.0081 13.4429
v  11.4545 33.3882 13.2358
v  10.6415 34.6808 13.6500
v  12.2674 33.7684 12.8216
v  13.1481 34.5287 12.3728
v  10.9125 35.3651 13.5119
v  11.3190 36.0493 13.3048
v  11.8609 36.9617 13.0287
v  13.6901 35.0609 12.0967
v  12.4029 37.8741 12.7525
v  21.1827 42.1319 8.2790
v  20.7084 42.1319 8.5206
v  19.9632 40.7633 8.9003
v  21.4807 46.5418 8.1271
v  21.0743 46.7699 8.3342
v  21.6840 46.1616 8.0236
v  20.4646 46.7699 8.6449
v  19.7194 46.3897 9.0246
v  21.8872 45.6294 7.9200
v  21.9279 44.7930 7.8993
v  19.0419 46.0095 9.3698
v  18.2967 45.4013 9.7495
v  14.2998 40.8394 11.7860
v  14.0288 40.7633 11.9241
v  13.8255 40.3071 12.0276
v  21.1827 42.3600 8.2790
v  21.6569 43.3484 8.0374
v  14.6385 35.9733 11.6134
v  14.9095 36.3535 11.4754
v  14.0965 35.7452 11.8896
v  12.8094 38.4824 12.5454
v  13.3513 39.6989 12.2693
v  21.8601 44.1848 7.9338
v  17.5515 44.7930 10.1292
v  19.2858 40.2311 9.2455
v  17.0773 44.2608 10.3708
v  16.6708 43.9567 10.5779
v  16.3321 43.4244 10.7505
v  15.8579 42.4360 10.9921
v  18.8116 40.0030 9.4871
v  17.8902 39.2427 9.9566
v  17.4838 38.7865 10.1637
v  15.1804 42.0559 11.3373
v  14.8417 41.8278 11.5099
v  14.5030 41.3716 11.6825
v  15.6547 42.2079 11.0957
v  17.2128 38.4063 10.3018
v  16.6708 37.9501 10.5779
v  16.1966 37.3419 10.8195
v  15.7224 36.9617 11.0611
v  15.1804 36.7336 11.3373
v  13.7578 35.3651 12.0622
v  18.8574 43.6525 9.5100
v  17.3334 42.5121 10.2034
v  17.3670 42.5121 10.2694
v  18.8238 43.6525 9.4441
v  18.4850 43.2724 9.6166
v  18.5187 43.2724 9.6826
v  16.9946 41.9038 10.3760
v  17.0283 41.9038 10.4420
v  15.8430 40.8394 10.9628
v  15.8766 40.8394 11.0288
v  14.4881 39.3947 11.6532
v  14.5217 39.3947 11.7192
v  13.6751 38.3303 12.0674
v  13.7088 38.3303 12.1334
v  12.9977 37.4179 12.4126
v  13.0313 37.4179 12.4786
v  12.1848 36.2014 12.8268
v  12.2184 36.2014 12.8928
v  11.4396 34.9849 13.2065
v  11.4732 34.9849 13.2725
v  10.8976 33.8444 13.4826
v  10.9312 33.8444 13.5486
v  10.2201 32.5519 13.8278
v  10.2538 32.5519 13.8938
v  9.4072 30.8792 14.2420
v  9.4408 30.8792 14.3080
v  8.9330 29.8147 14.4837
v  8.9666 29.8147 14.5496
v  8.3910 28.7503 14.7598
v  8.4246 28.7503 14.8258
v  7.7813 27.3817 15.0705
v  7.8149 27.3817 15.1364
v  7.2394 26.1652 15.3466
v  7.2730 26.1652 15.4126
v  6.8329 25.4049 15.5537
v  6.8665 25.4049 15.6197
v  6.4942 25.2528 15.7263
v  6.5278 25.2528 15.7923
v  6.6633 25.6330 15.7232
v  6.6297 25.6330 15.6573
v  6.9343 26.1652 15.5852
v  6.9006 26.1652 15.5192
v  7.6795 27.9900 15.2055
v  7.6458 27.9900 15.1395
v  8.6279 30.1188 14.7222
v  8.5943 30.1188 14.6562
v  9.7795 32.5519 14.1354
v  9.7459 32.5519 14.0694
v  10.7957 34.3766 13.6176
v  10.7621 34.3766 13.5517
v  11.7442 35.9733 13.1344
v  11.7105 35.9733 13.0684
v  13.2345 38.1782 12.3750
v  13.2009 38.1782 12.3090
v  14.4203 39.6228 11.6877
v  14.4540 39.6228 11.7537
v  15.9107 41.2195 10.9283
v  15.9443 41.2195 10.9943
v  6.8628 25.4293 15.6582
v  6.7026 25.6197 15.7399
v  6.5913 25.3074 15.7966
v  6.9732 26.1513 15.6020
v  7.2640 26.1798 15.4538
v  7.8055 27.3953 15.1779
v  7.7187 27.9768 15.2221
v  8.4156 28.7646 14.8671
v  8.6668 30.1049 14.7391
v  8.9575 29.8291 14.5909
v  9.4316 30.8933 14.3493
v  9.8179 32.5367 14.1526
v  10.2450 32.5669 13.9349
v  10.9224 33.8593 13.5898
v  10.8333 34.3601 13.6352
v  11.4648 35.0007 13.3134
v  11.7811 35.9557 13.1523
v  12.2112 36.2192 12.9331
v  13.0249 37.4368 12.5185
v  13.2701 38.1585 12.3936
v  13.7029 38.3499 12.1730
v  14.4880 39.6014 11.7730
v  14.5169 39.4157 11.7583
v  15.8735 40.8621 11.0671
v  15.9771 41.1967 11.0143
v  17.0259 41.9273 10.4799
v  17.3980 42.4876 10.2903
v  18.5153 43.2950 9.7210
v  18.6487 43.4447 9.6530
v  6.6393 25.6197 15.6157
v  6.7995 25.4293 15.5340
v  6.5280 25.3074 15.6724
v  6.9099 26.1513 15.4778
v  7.2008 26.1798 15.3296
v  7.7423 27.3953 15.0537
v  7.6554 27.9768 15.0979
v  8.3523 28.7646 14.7429
v  8.6035 30.1049 14.6149
v  8.8943 29.8291 14.4667
v  9.3684 30.8933 14.2252
v  9.7546 32.5367 14.0284
v  10.1817 32.5669 13.8107
v  10.8591 33.8593 13.4656
v  10.7700 34.3601 13.5110
v  11.4015 35.0007 13.1892
v  11.7178 35.9557 13.0281
v  12.1479 36.2192 12.8089
v  12.9616 37.4368 12.3943
v  13.2068 38.1585 12.2694
v  13.6396 38.3499 12.0488
v  14.4247 39.6014 11.6488
v  14.4536 39.4157 11.6341
v  15.8102 40.8621 10.9429
v  15.9138 41.1967 10.8901
v  16.9626 41.9273 10.3557
v  17.3347 42.4876 10.1661
v  18.5854 43.4447 9.5288
v  18.4520 43.2950 9.5968

vn 0.4540 -0.0000 0.8910
vn 0.4540 0.0000 0.8910
vn 0.8218 0.5477 0.1568
vn -0.6603 0.7477 -0.0711
vn -0.3306 0.7477 0.5760
vn 0.3562 0.5477 -0.7570
vn 0.3926 -0.6910 -0.6069
vn 0.7218 -0.6910 0.0391
vn 0.3598 -0.7192 -0.5944
vn 0.6923 -0.7192 0.0583
vn 0.3812 -0.6961 -0.6085
vn 0.7163 -0.6961 0.0493
vn 0.4317 -0.6398 -0.6359
vn 0.7682 -0.6398 0.0245
vn 0.4666 -0.6005 -0.6493
vn 0.7996 -0.6005 0.0041
vn 0.4826 -0.5767 -0.6592
vn 0.8169 -0.5767 -0.0030
vn 0.5060 -0.5425 -0.6706
vn 0.8399 -0.5425 -0.0152
vn 0.5386 -0.4823 -0.6909
vn 0.8755 -0.4823 -0.0297
vn 0.5583 -0.4553 -0.6936
vn 0.8893 -0.4553 -0.0440
vn 0.5542 -0.4585 -0.6947
vn 0.8878 -0.4585 -0.0400
vn 0.5675 -0.4307 -0.7017
vn 0.9013 -0.4307 -0.0467
vn 0.5664 -0.4395 -0.6972
vn 0.8969 -0.4395 -0.0485
vn 0.5631 -0.4387 -0.7004
vn 0.8976 -0.4387 -0.0438
vn 0.5754 -0.4162 -0.7041
vn 0.9078 -0.4162 -0.0517
vn 0.5628 -0.4483 -0.6945
vn 0.8926 -0.4483 -0.0471
vn 0.3796 -0.7120 -0.5907
vn 0.7010 -0.7120 0.0401
vn -0.7655 -0.6350 -0.1038
vn -0.3660 -0.6350 0.6804
vn -0.5842 0.4054 0.7031
vn -0.9122 0.4054 0.0593
vn -0.5684 0.4244 0.7048
vn -0.9043 0.4244 0.0456
vn -0.5826 0.4022 0.7063
vn -0.9138 0.4022 0.0562
vn -0.5715 0.4266 0.7010
vn -0.9031 0.4266 0.0503
vn -0.5539 0.4657 0.6902
vn -0.8839 0.4657 0.0424
vn -0.5312 0.5050 0.6803
vn -0.8626 0.5050 0.0299
vn -0.5110 0.5401 0.6687
vn -0.8414 0.5401 0.0204
vn -0.4688 0.6031 0.6454
vn -0.7977 0.6031 -0.0001
vn -0.7532 0.6573 -0.0250
vn -0.4225 0.6573 0.6240
vn -0.7131 0.6997 -0.0442
vn -0.3834 0.6997 0.6029
vn 0.6655 -0.3429 0.6629
vn 0.0819 0.1796 0.9803
vn 0.2244 -0.2300 0.9470
vn 0.1096 0.1778 0.9779
vn 0.7326 -0.1959 0.6518
vn 0.7343 -0.1785 0.6549
vn 0.0919 0.1740 0.9804
vn 0.7262 -0.1855 0.6619
vn 0.0976 0.1841 0.9781
vn 0.7332 -0.1911 0.6526
vn 0.7292 -0.1831 0.6594
vn 0.1012 0.2032 0.9739
vn 0.7236 -0.1950 0.6620
vn 0.7290 -0.1973 0.6554
vn 0.1146 0.2182 0.9692
vn 0.7131 -0.2008 0.6717
vn 0.1206 0.2351 0.9645
vn 0.7027 -0.2302 0.6732
vn 0.6924 -0.2441 0.6790
vn 0.1352 0.2655 0.9546
vn 0.6872 -0.2567 0.6797
vn 0.1599 0.2854 0.9450
vn 0.6690 -0.2671 0.6937
vn 0.6488 -0.2931 0.7022
vn 0.1747 0.3061 0.9358
vn 0.6418 -0.3082 0.7022
vn 0.1978 0.3271 0.9241
vn 0.6590 -0.3035 0.6882
vn 0.5174 0.0609 0.8536
vn -0.7449 0.1796 -0.6425
vn -0.1451 -0.3429 -0.9281
vn -0.6342 -0.2300 -0.7382
vn -0.7267 0.1778 -0.6635
vn -0.0967 -0.1959 -0.9758
vn -0.0982 -0.1785 -0.9790
vn -0.7392 0.1740 -0.6507
vn -0.1087 -0.1855 -0.9766
vn -0.7339 0.1841 -0.6538
vn -0.0970 -0.1911 -0.9768
vn -0.1049 -0.1830 -0.9775
vn -0.7284 0.2032 -0.6543
vn -0.1103 -0.1950 -0.9746
vn -0.1018 -0.1973 -0.9751
vn -0.7167 0.2182 -0.6623
vn -0.1243 -0.2008 -0.9717
vn -0.7094 0.2351 -0.6645
vn -0.1315 -0.2302 -0.9642
vn -0.1423 -0.2441 -0.9592
vn -0.6928 0.2655 -0.6705
vn -0.1460 -0.2567 -0.9554
vn -0.6705 0.2854 -0.6848
vn -0.1680 -0.2671 -0.9489
vn -0.1867 -0.2931 -0.9377
vn -0.6544 0.3061 -0.6914
vn -0.2890 -0.2030 -0.9355
vn -0.6313 0.3271 -0.7032
vn -0.3864 0.0609 -0.9203
vn -0.1695 -0.3035 -0.9376
vn 0.1036 -0.5665 -0.8175

vt 0.2500 0.3836 0.0000
vt 0.2542 0.3699 0.0000
vt 0.2712 0.3630 0.0000
vt 0.2585 0.4007 0.0000
vt 0.3008 0.3630 0.0000
vt 0.3263 0.3801 0.0000
vt 0.2754 0.4384 0.0000
vt 0.3771 0.3973 0.0000
vt 0.4322 0.4315 0.0000
vt 0.2924 0.4692 0.0000
vt 0.3178 0.5000 0.0000
vt 0.3517 0.5411 0.0000
vt 0.4661 0.4555 0.0000
vt 0.3856 0.5822 0.0000
vt 0.9347 0.7740 0.0000
vt 0.9051 0.7740 0.0000
vt 0.8585 0.7123 0.0000
vt 0.9534 0.9726 0.0000
vt 0.9280 0.9829 0.0000
vt 0.9661 0.9555 0.0000
vt 0.8898 0.9829 0.0000
vt 0.8432 0.9658 0.0000
vt 0.9788 0.9315 0.0000
vt 0.9814 0.8938 0.0000
vt 0.8008 0.9486 0.0000
vt 0.7542 0.9212 0.0000
vt 0.5042 0.7158 0.0000
vt 0.4873 0.7123 0.0000
vt 0.4746 0.6918 0.0000
vt 0.9347 0.7842 0.0000
vt 0.9644 0.8288 0.0000
vt 0.5254 0.4966 0.0000
vt 0.5424 0.5137 0.0000
vt 0.4915 0.4863 0.0000
vt 0.4110 0.6096 0.0000
vt 0.4449 0.6644 0.0000
vt 0.9771 0.8664 0.0000
vt 0.7076 0.8938 0.0000
vt 0.8161 0.6884 0.0000
vt 0.6780 0.8699 0.0000
vt 0.6525 0.8562 0.0000
vt 0.6314 0.8322 0.0000
vt 0.6017 0.7877 0.0000
vt 0.7864 0.6781 0.0000
vt 0.7288 0.6438 0.0000
vt 0.7034 0.6233 0.0000
vt 0.5593 0.7705 0.0000
vt 0.5381 0.7603 0.0000
vt 0.5169 0.7397 0.0000
vt 0.5890 0.7774 0.0000
vt 0.6864 0.6062 0.0000
vt 0.6525 0.5856 0.0000
vt 0.6229 0.5582 0.0000
vt 0.5932 0.5411 0.0000
vt 0.5593 0.5308 0.0000
vt 0.4703 0.4692 0.0000
vt 0.7881 0.8425 0.0000
vt 0.6949 0.7911 0.0000
vt 0.7669 0.8253 0.0000
vt 0.6737 0.7637 0.0000
vt 0.6017 0.7158 0.0000
vt 0.5169 0.6507 0.0000
vt 0.4661 0.6027 0.0000
vt 0.4237 0.5616 0.0000
vt 0.3729 0.5068 0.0000
vt 0.3263 0.4521 0.0000
vt 0.2924 0.4007 0.0000
vt 0.2500 0.3425 0.0000
vt 0.1992 0.2671 0.0000
vt 0.1695 0.2192 0.0000
vt 0.1356 0.1712 0.0000
vt 0.0975 0.1096 0.0000
vt 0.0636 0.0548 0.0000
vt 0.0381 0.0205 0.0000
vt 0.0169 0.0137 0.0000
vt 0.0254 0.0308 0.0000
vt 0.0424 0.0548 0.0000
vt 0.0890 0.1370 0.0000
vt 0.1483 0.2329 0.0000
vt 0.2203 0.3425 0.0000
vt 0.2839 0.4247 0.0000
vt 0.3432 0.4966 0.0000
vt 0.4364 0.5959 0.0000
vt 0.5127 0.6610 0.0000
vt 0.6059 0.7329 0.0000
vt 0.0370 0.0216 0.0000
vt 0.0270 0.0302 0.0000
vt 0.0200 0.0162 0.0000
vt 0.0439 0.0542 0.0000
vt 0.0621 0.0555 0.0000
vt 0.0959 0.1102 0.0000
vt 0.0905 0.1364 0.0000
vt 0.1341 0.1719 0.0000
vt 0.1498 0.2322 0.0000
vt 0.1680 0.2198 0.0000
vt 0.1977 0.2678 0.0000
vt 0.2218 0.3418 0.0000
vt 0.2485 0.3431 0.0000
vt 0.2909 0.4014 0.0000
vt 0.2853 0.4239 0.0000
vt 0.3248 0.4528 0.0000
vt 0.3446 0.4958 0.0000
vt 0.3715 0.5076 0.0000
vt 0.4224 0.5625 0.0000
vt 0.4377 0.5950 0.0000
vt 0.4648 0.6036 0.0000
vt 0.5139 0.6600 0.0000
vt 0.5157 0.6516 0.0000
vt 0.6006 0.7168 0.0000
vt 0.6071 0.7318 0.0000
vt 0.6727 0.7648 0.0000
vt 0.6959 0.7900 0.0000
vt 0.7658 0.8264 0.0000
vt 0.7742 0.8331 0.0000
vt 0.6727 0.7617 0.0000

s 1
f 1/1/1 2/2/1 3/3/1 
f 4/4/2 1/1/1 3/3/1 
f 5/5/2 4/4/2 3/3/1 
f 6/6/1 4/4/2 5/5/2 
f 7/7/1 4/4/2 6/6/1 
f 8/8/2 7/7/1 6/6/1 
f 9/9/1 7/7/1 8/8/2 
f 10/10/1 7/7/1 9/9/1 
f 11/11/1 10/10/1 9/9/1 
f 12/12/1 11/11/1 9/9/1 
f 13/13/1 12/12/1 9/9/1 
f 14/14/2 12/12/1 13/13/1 
f 15/15/2 16/16/2 17/17/1 
f 18/18/2 19/19/1 20/20/2 
f 19/19/1 21/21/1 20/20/2 
f 21/21/1 22/22/1 20/20/2 
f 20/20/2 22/22/1 23/23/1 
f 23/23/1 22/22/1 24/24/2 
f 22/22/1 25/25/1 24/24/2 
f 25/25/1 26/26/2 24/24/2 
f 27/27/2 28/28/2 29/29/1 
f 30/30/2 31/31/1 16/16/2 
f 32/32/2 33/33/1 34/34/1 
f 35/35/1 14/14/2 13/13/1 
f 36/36/1 35/35/1 13/13/1 
f 24/24/2 26/26/2 37/37/2 
f 37/37/2 26/26/2 31/31/1 
f 31/31/1 26/26/2 16/16/2 
f 16/16/2 26/26/2 17/17/1 
f 26/26/2 38/38/1 17/17/1 
f 17/17/1 38/38/1 39/39/1 
f 38/38/1 40/40/1 39/39/1 
f 40/40/1 41/41/1 42/42/1 
f 40/40/1 42/42/1 39/39/1 
f 42/42/1 43/43/1 39/39/1 
f 39/39/1 43/43/1 44/44/2 
f 44/44/2 43/43/1 45/45/1 
f 45/45/1 43/43/1 46/46/2 
f 47/47/1 48/48/2 49/49/2 
f 50/50/1 47/47/1 49/49/2 
f 50/50/1 49/49/2 27/27/2 
f 29/29/1 36/36/1 13/13/1 
f 46/46/2 43/43/1 51/51/2 
f 51/51/2 43/43/1 52/52/2 
f 52/52/2 43/43/1 53/53/1 
f 54/54/1 53/53/1 55/55/1 
f 53/53/1 43/43/1 55/55/1 
f 33/33/1 55/55/1 34/34/1 
f 55/55/1 43/43/1 34/34/1 
f 27/27/2 29/29/1 13/13/1 
f 34/34/1 43/43/1 56/56/2 
f 43/43/1 50/50/1 56/56/2 
f 50/50/1 27/27/2 56/56/2 
f 56/56/2 27/27/2 13/13/1 
s 3
f 57/57/3 58/58/4 59/58/5 
f 57/57/3 60/57/6 58/58/4 
s 12
f 61/59/7 57/57/3 62/59/8 
s 20
f 60/57/6 57/57/3 61/59/7 
s 36
f 63/60/9 62/59/8 64/60/10 
f 61/59/7 62/59/8 63/60/9 
s 5
f 65/61/11 64/60/10 66/61/12 
f 63/60/9 64/60/10 65/61/11 
s 1
f 67/62/13 66/61/12 68/62/14 
f 65/61/11 66/61/12 67/62/13 
f 69/63/15 68/62/14 70/63/16 
f 67/62/13 68/62/14 69/63/15 
f 71/64/17 70/63/16 72/64/18 
f 69/63/15 70/63/16 71/64/17 
f 73/65/19 72/64/18 74/65/20 
f 71/64/17 72/64/18 73/65/19 
f 75/66/21 74/65/20 76/66/22 
f 73/65/19 74/65/20 75/66/21 
f 77/67/23 76/66/22 78/67/24 
f 75/66/21 76/66/22 77/67/23 
f 79/68/25 78/67/24 80/68/26 
f 77/67/23 78/67/24 79/68/25 
f 81/69/27 80/68/26 82/69/28 
f 79/68/25 80/68/26 81/69/27 
f 83/70/29 82/69/28 84/70/30 
f 81/69/27 82/69/28 83/70/29 
f 85/71/31 84/70/30 86/71/32 
f 83/70/29 84/70/30 85/71/31 
f 87/72/33 86/71/32 88/72/34 
f 85/71/31 86/71/32 87/72/33 
f 89/73/35 88/72/34 90/73/36 
f 87/72/33 88/72/34 89/73/35 
f 91/74/37 90/73/36 92/74/38 
f 89/73/35 90/73/36 91/74/37 
f 93/75/39 92/74/38 94/75/40 
f 91/74/37 92/74/38 93/75/39 
f 95/76/41 93/75/39 94/75/40 
f 95/76/41 96/76/42 93/75/39 
f 97/77/43 96/76/42 95/76/41 
f 97/77/43 98/77/44 96/76/42 
f 99/78/45 98/77/44 97/77/43 
f 99/78/45 100/78/46 98/77/44 
f 101/79/47 100/78/46 99/78/45 
f 101/79/47 102/79/48 100/78/46 
f 103/80/49 102/79/48 101/79/47 
f 103/80/49 104/80/50 102/79/48 
f 105/81/51 104/80/50 103/80/49 
f 105/81/51 106/81/52 104/80/50 
f 107/82/53 106/81/52 105/81/51 
f 107/82/53 108/82/54 106/81/52 
f 109/83/55 108/82/54 107/82/53 
f 109/83/55 110/83/56 108/82/54 
f 111/84/57 110/83/56 109/83/55 
f 112/84/58 111/84/57 109/83/55 
f 113/85/59 111/84/57 112/84/58 
f 114/85/60 113/85/59 112/84/58 
s 65
f 59/58/5 113/85/59 114/85/60 
f 59/58/5 58/58/4 113/85/59 
s 1
f 115/86/61 116/87/62 117/88/63 
f 118/89/64 116/87/62 115/86/61 
f 119/90/65 118/89/64 115/86/61 
f 119/90/65 120/91/66 118/89/64 
f 120/91/66 121/92/67 118/89/64 
f 122/93/68 121/92/67 120/91/66 
f 122/93/68 123/94/69 121/92/67 
f 124/95/70 123/94/69 122/93/68 
f 125/96/71 123/94/69 124/95/70 
f 125/96/71 126/97/72 123/94/69 
f 127/98/73 126/97/72 125/96/71 
f 127/98/73 128/99/74 126/97/72 
f 128/99/74 129/100/75 126/97/72 
f 130/101/76 129/100/75 128/99/74 
f 130/101/76 131/102/77 129/100/75 
f 132/103/78 131/102/77 130/101/76 
f 132/103/78 133/104/79 131/102/77 
f 133/104/79 134/105/80 131/102/77 
f 135/106/81 134/105/80 133/104/79 
f 135/106/81 136/107/82 134/105/80 
f 137/108/83 136/107/82 135/106/81 
f 138/109/84 136/107/82 137/108/83 
f 138/109/84 139/110/85 136/107/82 
s 5
f 140/111/86 139/110/85 138/109/84 
s 101
f 140/111/86 141/112/87 139/110/85 
s 96
f 142/113/88 143/114/89 141/112/87 
s 101
f 142/113/88 141/112/87 140/111/86 
s 1
f 144/87/90 145/86/91 146/88/92 
f 144/87/90 147/89/93 145/86/91 
f 147/89/93 148/90/94 145/86/91 
f 149/91/95 148/90/94 147/89/93 
f 150/92/96 149/91/95 147/89/93 
f 150/92/96 151/93/97 149/91/95 
f 152/94/98 151/93/97 150/92/96 
f 152/94/98 153/95/99 151/93/97 
f 152/94/98 154/96/100 153/95/99 
f 155/97/101 154/96/100 152/94/98 
f 155/97/101 156/98/102 154/96/100 
f 157/99/103 156/98/102 155/97/101 
f 158/100/104 157/99/103 155/97/101 
f 158/100/104 159/101/105 157/99/103 
f 160/102/106 159/101/105 158/100/104 
f 160/102/106 161/103/107 159/101/105 
f 162/104/108 161/103/107 160/102/106 
f 163/105/109 162/104/108 160/102/106 
f 163/105/109 164/106/110 162/104/108 
f 165/107/111 164/106/110 163/105/109 
f 165/107/111 166/108/112 164/106/110 
f 165/107/111 167/109/113 166/108/112 
f 168/110/114 167/109/113 165/107/111 
f 168/110/114 169/111/115 167/109/113 
s 73
f 170/112/116 169/111/115 168/110/114 
s 72
f 171/114/117 172/113/118 170/112/116 
s 73
f 170/112/116 172/113/118 169/111/115 
s 194
f 143/114/89 59/58/5 141/112/87 
s 321
f 143/114/89 57/57/3 59/58/5 
s 424
f 143/114/89 142/113/88 62/59/8 
s 440
f 57/57/3 143/114/89 62/59/8 
s 36
f 62/59/8 140/111/86 64/60/10 
f 62/59/8 142/113/88 140/111/86 
s 5
f 64/60/10 138/109/84 66/61/12 
f 64/60/10 140/111/86 138/109/84 
s 1
f 66/61/12 137/108/83 68/62/14 
f 66/61/12 138/109/84 137/108/83 
f 68/62/14 135/106/81 70/63/16 
f 68/62/14 137/108/83 135/106/81 
f 70/63/16 133/104/79 72/64/18 
f 70/63/16 135/106/81 133/104/79 
f 72/64/18 132/103/78 74/65/20 
f 72/64/18 133/104/79 132/103/78 
f 74/65/20 130/101/76 76/66/22 
f 74/65/20 132/103/78 130/101/76 
f 76/66/22 128/99/74 78/67/24 
f 76/66/22 130/101/76 128/99/74 
f 78/67/24 127/98/73 80/68/26 
f 78/67/24 128/99/74 127/98/73 
f 80/68/26 125/96/71 82/69/28 
f 80/68/26 127/98/73 125/96/71 
f 82/69/28 124/95/70 84/70/30 
f 82/69/28 125/96/71 124/95/70 
f 84/70/30 122/93/68 86/71/32 
f 84/70/30 124/95/70 122/93/68 
f 86/71/32 120/91/66 88/72/34 
f 86/71/32 122/93/68 120/91/66 
f 88/72/34 119/90/65 90/73/36 
f 88/72/34 120/91/66 119/90/65 
f 90/73/36 115/86/61 92/74/38 
f 90/73/36 119/90/65 115/86/61 
f 92/74/38 117/88/63 94/75/40 
f 92/74/38 115/86/61 117/88/63 
f 117/88/63 95/76/41 94/75/40 
f 116/87/62 95/76/41 117/88/63 
f 97/77/43 95/76/41 116/87/62 
f 118/89/64 97/77/43 116/87/62 
f 99/78/45 97/77/43 118/89/64 
f 121/92/67 99/78/45 118/89/64 
f 101/79/47 99/78/45 121/92/67 
f 123/94/69 101/79/47 121/92/67 
f 103/80/49 101/79/47 123/94/69 
f 126/97/72 103/80/49 123/94/69 
f 105/81/51 103/80/49 126/97/72 
f 129/100/75 105/81/51 126/97/72 
f 107/82/53 105/81/51 129/100/75 
f 131/102/77 107/82/53 129/100/75 
f 109/83/55 107/82/53 131/102/77 
f 134/105/80 109/83/55 131/102/77 
f 112/84/58 109/83/55 134/105/80 
f 136/107/82 112/84/58 134/105/80 
f 114/85/60 112/84/58 136/107/82 
f 139/110/85 114/85/60 136/107/82 
s 65
f 59/58/5 114/85/60 139/110/85 
f 141/112/87 59/58/5 139/110/85 
s 524
f 171/114/117 60/57/6 61/59/7 
s 1036
f 172/113/118 171/114/117 61/59/7 
s 1602
f 58/58/4 171/114/117 170/112/116 
f 60/57/6 171/114/117 58/58/4 
s 73
f 113/85/59 170/112/116 168/110/114 
s 65
f 58/58/4 170/112/116 113/85/59 
s 1
f 111/84/57 168/110/114 165/107/111 
f 113/85/59 168/110/114 111/84/57 
f 110/83/56 165/107/111 163/105/109 
f 111/84/57 165/107/111 110/83/56 
f 108/82/54 163/105/109 160/102/106 
f 110/83/56 163/105/109 108/82/54 
f 106/81/52 160/102/106 158/100/104 
f 108/82/54 160/102/106 106/81/52 
f 104/80/50 158/100/104 155/97/101 
f 106/81/52 158/100/104 104/80/50 
f 102/79/48 155/97/101 152/94/98 
f 104/80/50 155/97/101 102/79/48 
f 100/78/46 152/94/98 150/92/96 
f 102/79/48 152/94/98 100/78/46 
f 98/77/44 150/92/96 147/89/93 
f 100/78/46 150/92/96 98/77/44 
f 96/76/42 147/89/93 144/87/90 
f 98/77/44 147/89/93 96/76/42 
f 96/76/42 146/88/92 93/75/39 
f 96/76/42 144/87/90 146/88/92 
f 146/88/92 91/74/37 93/75/39 
f 145/86/91 91/74/37 146/88/92 
f 145/86/91 89/73/35 91/74/37 
f 148/90/94 89/73/35 145/86/91 
f 149/91/95 87/72/33 89/73/35 
f 148/90/94 149/91/95 89/73/35 
f 151/93/97 85/71/31 87/72/33 
f 149/91/95 151/93/97 87/72/33 
f 153/95/99 83/70/29 85/71/31 
f 151/93/97 153/95/99 85/71/31 
f 154/96/100 81/69/27 83/70/29 
f 153/95/99 154/96/100 83/70/29 
f 156/98/102 79/68/25 81/69/27 
f 154/96/100 156/98/102 81/69/27 
f 157/99/103 77/67/23 79/68/25 
f 156/98/102 157/99/103 79/68/25 
f 159/101/105 75/66/21 77/67/23 
f 157/99/103 159/101/105 77/67/23 
f 161/103/107 73/65/19 75/66/21 
f 159/101/105 161/103/107 75/66/21 
f 162/104/108 71/64/17 73/65/19 
f 161/103/107 162/104/108 73/65/19 
f 164/106/110 69/63/15 71/64/17 
f 162/104/108 164/106/110 71/64/17 
f 166/108/112 67/62/13 69/63/15 
f 164/106/110 166/108/112 69/63/15 
f 167/109/113 65/61/11 67/62/13 
f 166/108/112 167/109/113 67/62/13 
s 5
f 169/111/115 63/60/9 65/61/11 
s 1
f 167/109/113 169/111/115 65/61/11 
s 12
f 172/113/118 61/59/7 63/60/9 
s 13
f 169/115/119 172/113/118 63/60/9 