v  13.0388 25.5569 14.9700
v  12.4073 25.5569 12.6130
v  8.3248 25.1007 14.9700
v  11.8805 25.1007 12.9171
v  12.4306 25.1007 14.9700
v  12.6706 25.2528 12.4609
v  13.3429 25.2528 14.9700
v  13.9512 25.7090 14.9700
v  13.1974 25.7090 12.1568
v  13.9512 29.5106 14.9700
v  13.1974 29.5106 12.1568
v  12.8023 30.1188 12.3849
v  13.4950 30.1188 14.9700
v  10.4319 30.4230 13.7535
v  10.7579 30.4230 14.9700
v  10.1685 31.3354 13.9055
v  10.4537 31.3354 14.9700
v  11.2220 31.3354 13.2973
v  11.6702 31.3354 14.9700
v  11.6702 31.7915 14.9700
v  11.2220 31.7915 13.2973
v  11.2140 31.9436 14.9700
v  10.8270 31.9436 13.5254
v  10.1685 31.7915 13.9055
v  10.4537 31.7915 14.9700
v  9.7734 31.1833 14.1336
v  9.9975 31.1833 14.9700
v  10.1685 30.2709 13.9055
v  10.4537 30.2709 14.9700
v  12.6706 29.8147 12.4609
v  13.3429 29.8147 14.9700
v  10.6818 25.5569 10.8875
v  10.3777 25.1007 11.4143
v  10.8339 25.2528 10.6242
v  11.1380 25.7090 10.0974
v  11.1380 29.5106 10.0974
v  10.9099 30.1188 10.4925
v  9.5413 30.4230 12.8629
v  9.3893 31.3354 13.1263
v  9.9975 31.3354 12.0728
v  9.9975 31.7915 12.0728
v  9.7694 31.9436 12.4678
v  9.3893 31.7915 13.1263
v  9.1612 31.1833 13.5214
v  9.3893 30.2709 13.1263
v  10.8339 29.8147 10.6242
v  8.3248 25.5569 10.2560
v  8.3248 25.1007 10.8642
v  8.3248 25.2528 9.9519
v  8.3248 25.7090 9.3436
v  8.3248 29.5106 9.3436
v  8.3248 30.1188 9.7998
v  8.3248 30.4230 12.5369
v  8.3248 31.3354 12.8411
v  8.3248 31.3354 11.6246
v  8.3248 31.7915 11.6246
v  8.3248 31.9436 12.0808
v  8.3248 31.7915 12.8411
v  8.3248 31.1833 13.2973
v  8.3248 30.2709 12.8411
v  8.3248 29.8147 9.9519
v  5.9678 25.5569 10.8875
v  6.2720 25.1007 11.4143
v  5.8158 25.2528 10.6242
v  5.5116 25.7090 10.0974
v  5.5116 29.5106 10.0974
v  5.7397 30.1188 10.4925
v  7.1083 30.4230 12.8629
v  7.2604 31.3354 13.1263
v  6.6521 31.3354 12.0728
v  6.6521 31.7915 12.0728
v  6.8802 31.9436 12.4678
v  7.2604 31.7915 13.1263
v  7.4885 31.1833 13.5214
v  7.2604 30.2709 13.1263
v  5.8158 29.8147 10.6242
v  4.2424 25.5569 12.6130
v  4.7692 25.1007 12.9171
v  3.9790 25.2528 12.4609
v  3.4523 25.7090 12.1568
v  3.4523 29.5106 12.1568
v  3.8473 30.1188 12.3849
v  6.2178 30.4230 13.7535
v  6.4812 31.3354 13.9055
v  5.4276 31.3354 13.2973
v  5.4276 31.7915 13.2973
v  5.8227 31.9436 13.5254
v  6.4812 31.7915 13.9055
v  6.8762 31.1833 14.1336
v  6.4812 30.2709 13.9055
v  3.9790 29.8147 12.4609
v  3.6108 25.5569 14.9700
v  4.2191 25.1007 14.9700
v  3.3067 25.2528 14.9700
v  2.6985 25.7090 14.9700
v  2.6985 29.5106 14.9700
v  3.1547 30.1188 14.9700
v  5.8918 30.4230 14.9700
v  6.1959 31.3354 14.9700
v  4.9794 31.3354 14.9700
v  4.9794 31.7915 14.9700
v  5.4356 31.9436 14.9700
v  6.1959 31.7915 14.9700
v  6.6521 31.1833 14.9700
v  6.1959 30.2709 14.9700
v  3.3067 29.8147 14.9700
v  4.2424 25.5569 17.3270
v  4.7692 25.1007 17.0228
v  3.9790 25.2528 17.4790
v  3.4523 25.7090 17.7832
v  3.4523 29.5106 17.7832
v  3.8473 30.1188 17.5551
v  6.2178 30.4230 16.1865
v  6.4812 31.3354 16.0344
v  5.4276 31.3354 16.6427
v  5.4276 31.7915 16.6427
v  5.8227 31.9436 16.4146
v  6.4812 31.7915 16.0344
v  6.8762 31.1833 15.8063
v  6.4812 30.2709 16.0344
v  3.9790 29.8147 17.4790
v  5.9678 25.5569 19.0524
v  6.2720 25.1007 18.5256
v  5.8158 25.2528 19.3158
v  5.5116 25.7090 19.8425
v  5.5116 29.5106 19.8425
v  5.7397 30.1188 19.4475
v  7.1083 30.4230 17.0770
v  7.2604 31.3354 16.8137
v  6.6521 31.3354 17.8672
v  6.6521 31.7915 17.8672
v  6.8802 31.9436 17.4721
v  7.2604 31.7915 16.8137
v  7.4885 31.1833 16.4186
v  7.2604 30.2709 16.8137
v  5.8158 29.8147 19.3158
v  8.3248 25.5569 19.6840
v  8.3248 25.1007 19.0757
v  8.3248 25.2528 19.9881
v  8.3248 25.7090 20.5963
v  8.3248 29.5106 20.5963
v  8.3248 30.1188 20.1401
v  8.3248 30.4230 17.4030
v  8.3248 31.3354 17.0989
v  8.3248 31.3354 18.3154
v  8.3248 31.7915 18.3154
v  8.3248 31.9436 17.8592
v  8.3248 31.7915 17.0989
v  8.3248 31.1833 16.6427
v  8.3248 30.2709 17.0989
v  8.3248 29.8147 19.9881
v  10.6818 25.5569 19.0524
v  10.3777 25.1007 18.5256
v  10.8339 25.2528 19.3158
v  11.1380 25.7090 19.8425
v  11.1380 29.5106 19.8425
v  10.9099 30.1188 19.4475
v  9.5413 30.4230 17.0770
v  9.3893 31.3354 16.8137
v  9.9975 31.3354 17.8672
v  9.9975 31.7915 17.8672
v  9.7694 31.9436 17.4721
v  9.3893 31.7915 16.8137
v  9.1612 31.1833 16.4186
v  9.3893 30.2709 16.8137
v  10.8339 29.8147 19.3158
v  12.4073 25.5569 17.3270
v  11.8805 25.1007 17.0228
v  12.6706 25.2528 17.4790
v  13.1974 25.7090 17.7832
v  13.1974 29.5106 17.7832
v  12.8023 30.1188 17.5551
v  10.4319 30.4230 16.1865
v  10.1685 31.3354 16.0344
v  11.2220 31.3354 16.6427
v  11.2220 31.7915 16.6427
v  10.8270 31.9436 16.4146
v  10.1685 31.7915 16.0344
v  9.7734 31.1833 15.8063
v  10.1685 30.2709 16.0344
v  12.6706 29.8147 17.4790

vn -0.7610 0.6488 -0.0000
vn -0.6590 0.6488 0.3805
vn -0.0000 1.0000 0.0000
vn 0.0832 -0.9954 -0.0480
vn 0.0961 -0.9954 -0.0000
vn 0.0000 -1.0000 -0.0000
vn 0.3686 -0.9049 -0.2128
vn 0.4257 -0.9049 0.0000
vn 0.9075 -0.4201 -0.0000
vn 0.7859 -0.4201 -0.4537
vn 0.9534 0.3016 -0.0000
vn 0.8257 0.3016 -0.4767
vn 0.4699 0.8400 -0.2713
vn 0.5426 0.8400 -0.0000
vn 0.4921 0.8229 -0.2841
vn 0.5682 0.8229 0.0000
vn 0.8216 0.3162 -0.4743
vn 0.9487 0.3162 -0.0000
vn 0.8660 0.0000 -0.5000
vn 0.8398 0.5429 0.0000
vn 1.0000 0.0000 -0.0000
vn 0.7273 0.5429 -0.4199
vn 0.1045 0.9945 -0.0000
vn 0.0905 0.9945 -0.0522
vn -0.4226 0.8728 0.2440
vn -0.4880 0.8728 0.0000
vn -0.8618 0.0987 0.4976
vn -0.9951 0.0987 0.0000
vn -0.4647 -0.8438 0.2683
vn -0.5366 -0.8438 0.0000
vn -0.7099 -0.5728 0.4098
vn -0.8197 -0.5728 -0.0000
vn -0.3805 0.6488 0.6590
vn 0.0480 -0.9954 -0.0832
vn 0.2128 -0.9049 -0.3686
vn 0.4537 -0.4201 -0.7859
vn 0.4767 0.3016 -0.8257
vn 0.2713 0.8400 -0.4699
vn 0.2841 0.8229 -0.4921
vn 0.4743 0.3162 -0.8216
vn 0.5000 0.0000 -0.8660
vn 0.4199 0.5429 -0.7273
vn 0.0522 0.9945 -0.0905
vn -0.2440 0.8728 0.4226
vn -0.4976 0.0987 0.8618
vn -0.2683 -0.8438 0.4647
vn -0.4098 -0.5728 0.7099
vn 0.0000 0.6488 0.7610
vn -0.0000 -0.9954 -0.0961
vn -0.0000 -0.9049 -0.4257
vn 0.0000 -0.4201 -0.9075
vn 0.0000 0.3016 -0.9534
vn 0.0000 0.8400 -0.5426
vn 0.0000 0.8229 -0.5682
vn 0.0000 0.3162 -0.9487
vn 0.0000 0.0000 -1.0000
vn -0.0000 0.5429 -0.8398
vn 0.0000 0.9945 -0.1045
vn -0.0000 0.8728 0.4880
vn -0.0000 0.0987 0.9951
vn -0.0000 -0.8438 0.5366
vn 0.0000 -0.5728 0.8197
vn 0.3805 0.6488 0.6590
vn -0.0480 -0.9954 -0.0832
vn -0.2128 -0.9049 -0.3686
vn -0.4537 -0.4201 -0.7859
vn -0.4767 0.3016 -0.8257
vn -0.2713 0.8400 -0.4699
vn -0.2841 0.8229 -0.4921
vn -0.4743 0.3162 -0.8216
vn -0.4199 0.5429 -0.7273
vn -0.5000 0.0000 -0.8660
vn -0.0522 0.9945 -0.0905
vn 0.2440 0.8728 0.4226
vn 0.4976 0.0987 0.8618
vn 0.2683 -0.8438 0.4647
vn 0.4098 -0.5728 0.7099
vn 0.6590 0.6488 0.3805
vn -0.0832 -0.9954 -0.0480
vn -0.3686 -0.9049 -0.2128
vn -0.7859 -0.4201 -0.4537
vn -0.8257 0.3016 -0.4767
vn -0.4699 0.8400 -0.2713
vn -0.4921 0.8229 -0.2841
vn -0.8216 0.3162 -0.4743
vn -0.7273 0.5429 -0.4199
vn -0.8660 0.0000 -0.5000
vn -0.0905 0.9945 -0.0522
vn 0.4226 0.8728 0.2440
vn 0.8618 0.0987 0.4976
vn 0.4647 -0.8438 0.2683
vn 0.7099 -0.5728 0.4098
vn 0.7610 0.6488 -0.0000
vn -0.0961 -0.9954 -0.0000
vn -0.4257 -0.9049 0.0000
vn -0.9075 -0.4201 0.0000
vn -0.9534 0.3016 0.0000
vn -0.5426 0.8400 0.0000
vn -0.5682 0.8229 0.0000
vn -0.9487 0.3162 0.0000
vn -0.8398 0.5429 0.0000
vn -1.0000 0.0000 -0.0000
vn -0.1045 0.9945 -0.0000
vn 0.4880 0.8728 -0.0000
vn 0.9951 0.0987 -0.0000
vn 0.5366 -0.8438 -0.0000
vn 0.8197 -0.5728 -0.0000
vn 0.6590 0.6488 -0.3805
vn -0.0832 -0.9954 0.0480
vn -0.3686 -0.9049 0.2128
vn -0.7859 -0.4201 0.4537
vn -0.8257 0.3016 0.4767
vn -0.4699 0.8400 0.2713
vn -0.4921 0.8229 0.2841
vn -0.8216 0.3162 0.4743
vn -0.7273 0.5429 0.4199
vn -0.8660 0.0000 0.5000
vn -0.0905 0.9945 0.0522
vn 0.4226 0.8728 -0.2440
vn 0.8618 0.0987 -0.4976
vn 0.4647 -0.8438 -0.2683
vn 0.7099 -0.5728 -0.4098
vn 0.3805 0.6488 -0.6590
vn -0.0480 -0.9954 0.0832
vn -0.2128 -0.9049 0.3686
vn -0.4537 -0.4201 0.7859
vn -0.4767 0.3016 0.8257
vn -0.2713 0.8400 0.4699
vn -0.2841 0.8229 0.4921
vn -0.4743 0.3162 0.8216
vn -0.4199 0.5429 0.7273
vn -0.5000 0.0000 0.8660
vn -0.0522 0.9945 0.0905
vn 0.2440 0.8728 -0.4226
vn 0.4976 0.0987 -0.8618
vn 0.2683 -0.8438 -0.4647
vn 0.4098 -0.5728 -0.7099
vn -0.0000 0.6488 -0.7610
vn 0.0000 -0.9954 0.0961
vn -0.0000 -0.9049 0.4257
vn -0.0000 -0.4201 0.9075
vn 0.0000 0.3016 0.9534
vn 0.0000 0.8400 0.5426
vn 0.0000 0.8229 0.5682
vn -0.0000 0.3162 0.9487
vn -0.0000 0.5429 0.8398
vn -0.0000 0.0000 1.0000
vn -0.0000 0.9945 0.1045
vn 0.0000 0.8728 -0.4880
vn -0.0000 0.0987 -0.9951
vn 0.0000 -0.8438 -0.5366
vn -0.0000 -0.5728 -0.8197
vn -0.3805 0.6488 -0.6590
vn 0.0480 -0.9954 0.0832
vn 0.2128 -0.9049 0.3686
vn 0.4537 -0.4201 0.7859
vn 0.4767 0.3016 0.8257
vn 0.2713 0.8400 0.4699
vn 0.2841 0.8229 0.4921
vn 0.4743 0.3162 0.8216
vn 0.5000 0.0000 0.8660
vn 0.4199 0.5429 0.7273
vn 0.0522 0.9945 0.0905
vn -0.2440 0.8728 -0.4226
vn -0.4976 0.0987 -0.8618
vn -0.2683 -0.8438 -0.4647
vn -0.4098 -0.5728 -0.7099
vn -0.6590 0.6488 -0.3805
vn 0.0832 -0.9954 0.0480
vn 0.3686 -0.9049 0.2128
vn 0.7859 -0.4201 0.4537
vn 0.8257 0.3016 0.4767
vn 0.4699 0.8400 0.2713
vn 0.4921 0.8229 0.2841
vn 0.8216 0.3162 0.4743
vn 0.8660 0.0000 0.5000
vn 0.7273 0.5429 0.4199
vn 0.0905 0.9945 0.0522
vn -0.4226 0.8728 -0.2440
vn -0.8618 0.0987 -0.4976
vn -0.4647 -0.8438 -0.2683
vn -0.7099 -0.5728 -0.4098

s 1
f 1//1 2//2 3//3 
s 2
f 4//4 5//5 3//6 
f 6//7 7//8 5//5 
f 4//4 6//7 5//5 
s 3
f 6//7 8//9 7//8 
f 9//10 8//9 6//7 
s 1
f 9//10 10//11 8//9 
f 11//12 10//11 9//10 
f 12//13 13//14 10//11 
f 11//12 12//13 10//11 
f 12//13 14//15 13//14 
f 14//15 15//16 13//14 
f 16//17 17//18 15//16 
f 14//15 16//17 15//16 
s 2
f 16//6 18//6 17//6 
f 18//6 19//6 17//6 
s 1
f 18//19 20//20 19//21 
f 21//22 20//20 18//19 
f 21//22 22//23 20//20 
f 23//24 22//23 21//22 
f 23//24 24//25 25//26 
f 22//23 23//24 25//26 
f 25//26 26//27 27//28 
f 25//26 24//25 26//27 
f 26//27 28//29 29//30 
f 27//28 26//27 29//30 
f 29//30 30//31 31//32 
f 29//30 28//29 30//31 
f 31//32 2//2 1//1 
f 31//32 30//31 2//2 
f 2//2 32//33 3//3 
s 2
f 33//34 4//4 3//6 
f 34//35 6//7 4//4 
f 33//34 34//35 4//4 
s 3
f 34//35 9//10 6//7 
f 35//36 9//10 34//35 
s 1
f 35//36 11//12 9//10 
f 36//37 11//12 35//36 
f 37//38 12//13 11//12 
f 36//37 37//38 11//12 
f 37//38 14//15 12//13 
f 38//39 14//15 37//38 
f 38//39 16//17 14//15 
f 39//40 16//17 38//39 
s 2
f 40//6 18//6 16//6 
f 39//6 40//6 16//6 
s 1
f 40//41 21//22 18//19 
f 41//42 21//22 40//41 
f 41//42 23//24 21//22 
f 42//43 23//24 41//42 
f 23//24 43//44 24//25 
f 23//24 42//43 43//44 
f 43//44 44//45 26//27 
f 24//25 43//44 26//27 
f 26//27 45//46 28//29 
f 26//27 44//45 45//46 
f 28//29 46//47 30//31 
f 28//29 45//46 46//47 
f 46//47 32//33 2//2 
f 30//31 46//47 2//2 
f 32//33 47//48 3//3 
s 2
f 48//49 33//34 3//6 
f 48//49 34//35 33//34 
f 49//50 34//35 48//49 
s 3
f 49//50 35//36 34//35 
f 50//51 35//36 49//50 
s 1
f 50//51 36//37 35//36 
f 51//52 36//37 50//51 
f 51//52 37//38 36//37 
f 52//53 37//38 51//52 
f 52//53 38//39 37//38 
f 53//54 38//39 52//53 
f 53//54 39//40 38//39 
f 54//55 39//40 53//54 
s 2
f 54//6 40//6 39//6 
f 55//6 40//6 54//6 
s 1
f 55//56 41//42 40//41 
f 56//57 41//42 55//56 
f 57//58 42//43 41//42 
f 56//57 57//58 41//42 
f 42//43 58//59 43//44 
f 42//43 57//58 58//59 
f 58//59 59//60 44//45 
f 43//44 58//59 44//45 
f 44//45 60//61 45//46 
f 44//45 59//60 60//61 
f 45//46 61//62 46//47 
f 45//46 60//61 61//62 
f 61//62 47//48 32//33 
f 46//47 61//62 32//33 
f 47//48 62//63 3//3 
s 2
f 63//64 48//49 3//6 
f 64//65 48//49 63//64 
f 64//65 49//50 48//49 
s 3
f 50//51 49//50 64//65 
f 65//66 50//51 64//65 
s 1
f 66//67 50//51 65//66 
f 66//67 51//52 50//51 
f 67//68 51//52 66//67 
f 67//68 52//53 51//52 
f 68//69 52//53 67//68 
f 68//69 53//54 52//53 
f 69//70 53//54 68//69 
f 69//70 54//55 53//54 
s 2
f 55//6 54//6 69//6 
f 70//6 55//6 69//6 
s 1
f 71//71 55//56 70//72 
f 71//71 56//57 55//56 
f 57//58 56//57 71//71 
f 72//73 57//58 71//71 
f 57//58 72//73 73//74 
f 58//59 57//58 73//74 
f 58//59 73//74 74//75 
f 59//60 58//59 74//75 
f 60//61 74//75 75//76 
f 59//60 74//75 60//61 
f 61//62 75//76 76//77 
f 60//61 75//76 61//62 
f 61//62 76//77 62//63 
f 47//48 61//62 62//63 
f 62//63 77//78 3//3 
s 2
f 78//79 63//64 3//6 
f 79//80 63//64 78//79 
f 79//80 64//65 63//64 
s 3
f 80//81 64//65 79//80 
f 80//81 65//66 64//65 
s 1
f 81//82 65//66 80//81 
f 81//82 66//67 65//66 
f 67//68 66//67 81//82 
f 82//83 67//68 81//82 
f 68//69 67//68 82//83 
f 83//84 68//69 82//83 
f 69//70 68//69 83//84 
f 84//85 69//70 83//84 
s 2
f 85//6 69//6 84//6 
f 70//6 69//6 85//6 
s 1
f 86//86 70//72 85//87 
f 86//86 71//71 70//72 
f 87//88 71//71 86//86 
f 87//88 72//73 71//71 
f 73//74 87//88 88//89 
f 72//73 87//88 73//74 
f 73//74 88//89 89//90 
f 74//75 73//74 89//90 
f 74//75 89//90 90//91 
f 75//76 74//75 90//91 
f 76//77 90//91 91//92 
f 75//76 90//91 76//77 
f 76//77 91//92 77//78 
f 62//63 76//77 77//78 
f 77//78 92//93 3//3 
s 2
f 78//79 3//6 93//94 
f 94//95 79//80 78//79 
f 94//95 78//79 93//94 
s 3
f 80//81 79//80 94//95 
f 95//96 80//81 94//95 
s 1
f 96//97 80//81 95//96 
f 96//97 81//82 80//81 
f 82//83 81//82 96//97 
f 97//98 82//83 96//97 
f 98//99 83//84 82//83 
f 98//99 82//83 97//98 
f 84//85 83//84 98//99 
f 99//100 84//85 98//99 
s 2
f 85//6 99//6 100//6 
f 85//6 84//6 99//6 
s 1
f 101//101 85//87 100//102 
f 101//101 86//86 85//87 
f 102//103 86//86 101//101 
f 102//103 87//88 86//86 
f 88//89 102//103 103//104 
f 87//88 102//103 88//89 
f 89//90 103//104 104//105 
f 88//89 103//104 89//90 
f 89//90 104//105 105//106 
f 90//91 89//90 105//106 
f 91//92 90//91 106//107 
f 90//91 105//106 106//107 
f 77//78 106//107 92//93 
f 91//92 106//107 77//78 
f 92//93 107//108 3//3 
s 2
f 93//94 3//6 108//109 
f 109//110 93//94 108//109 
f 109//110 94//95 93//94 
s 3
f 110//111 94//95 109//110 
f 110//111 95//96 94//95 
s 1
f 111//112 95//96 110//111 
f 111//112 96//97 95//96 
f 112//113 96//97 111//112 
f 112//113 97//98 96//97 
f 113//114 97//98 112//113 
f 113//114 98//99 97//98 
f 114//115 98//99 113//114 
f 114//115 99//100 98//99 
s 2
f 99//6 114//6 115//6 
f 100//6 99//6 115//6 
s 1
f 116//116 100//102 115//117 
f 116//116 101//101 100//102 
f 102//103 101//101 116//116 
f 117//118 102//103 116//116 
f 103//104 117//118 118//119 
f 102//103 117//118 103//104 
f 103//104 118//119 119//120 
f 104//105 103//104 119//120 
f 105//106 119//120 120//121 
f 104//105 119//120 105//106 
f 106//107 120//121 121//122 
f 105//106 120//121 106//107 
f 106//107 121//122 107//108 
f 92//93 106//107 107//108 
f 107//108 122//123 3//3 
s 2
f 3//6 123//124 108//109 
f 123//124 109//110 108//109 
f 124//125 109//110 123//124 
s 3
f 125//126 109//110 124//125 
f 125//126 110//111 109//110 
s 1
f 126//127 110//111 125//126 
f 126//127 111//112 110//111 
f 112//113 111//112 126//127 
f 127//128 112//113 126//127 
f 113//114 112//113 127//128 
f 128//129 113//114 127//128 
f 114//115 113//114 128//129 
f 129//130 114//115 128//129 
s 2
f 115//6 129//6 130//6 
f 115//6 114//6 129//6 
s 1
f 131//131 115//117 130//132 
f 131//131 116//116 115//117 
f 132//133 116//116 131//131 
f 132//133 117//118 116//116 
f 117//118 132//133 133//134 
f 118//119 117//118 133//134 
f 119//120 133//134 134//135 
f 118//119 133//134 119//120 
f 120//121 134//135 135//136 
f 119//120 134//135 120//121 
f 121//122 135//136 136//137 
f 120//121 135//136 121//122 
f 107//108 136//137 122//123 
f 121//122 136//137 107//108 
f 122//123 137//138 3//3 
s 2
f 123//124 3//6 138//139 
f 139//140 123//124 138//139 
f 139//140 124//125 123//124 
s 3
f 125//126 124//125 139//140 
f 140//141 125//126 139//140 
s 1
f 141//142 125//126 140//141 
f 141//142 126//127 125//126 
f 127//128 126//127 141//142 
f 142//143 127//128 141//142 
f 143//144 128//129 127//128 
f 143//144 127//128 142//143 
f 129//130 128//129 143//144 
f 144//145 129//130 143//144 
s 2
f 129//6 144//6 145//6 
f 130//6 129//6 145//6 
s 1
f 146//146 130//132 145//147 
f 146//146 131//131 130//132 
f 147//148 131//131 146//146 
f 147//148 132//133 131//131 
f 133//134 147//148 148//149 
f 132//133 147//148 133//134 
f 134//135 148//149 149//150 
f 133//134 148//149 134//135 
f 134//135 149//150 150//151 
f 135//136 134//135 150//151 
f 135//136 150//151 151//152 
f 136//137 135//136 151//152 
f 122//123 151//152 137//138 
f 136//137 151//152 122//123 
f 137//138 152//153 3//3 
s 2
f 3//6 153//154 138//139 
f 154//155 139//140 153//154 
f 153//154 139//140 138//139 
s 3
f 155//156 140//141 139//140 
f 154//155 155//156 139//140 
s 1
f 155//156 141//142 140//141 
f 156//157 141//142 155//156 
f 157//158 142//143 141//142 
f 156//157 157//158 141//142 
f 157//158 143//144 142//143 
f 158//159 143//144 157//158 
f 159//160 144//145 143//144 
f 158//159 159//160 143//144 
s 2
f 144//6 159//6 145//6 
f 159//6 160//6 145//6 
s 1
f 160//161 146//146 145//147 
f 161//162 146//146 160//161 
f 161//162 147//148 146//146 
f 162//163 147//148 161//162 
f 147//148 163//164 148//149 
f 147//148 162//163 163//164 
f 148//149 164//165 149//150 
f 148//149 163//164 164//165 
f 149//150 164//165 150//151 
f 164//165 165//166 150//151 
f 150//151 165//166 151//152 
f 165//166 166//167 151//152 
f 151//152 152//153 137//138 
f 151//152 166//167 152//153 
f 152//153 167//168 3//3 
s 2
f 3//6 168//169 153//154 
f 169//170 154//155 153//154 
f 168//169 169//170 153//154 
s 3
f 169//170 155//156 154//155 
f 170//171 155//156 169//170 
s 1
f 170//171 156//157 155//156 
f 171//172 156//157 170//171 
f 172//173 157//158 156//157 
f 171//172 172//173 156//157 
f 172//173 158//159 157//158 
f 173//174 158//159 172//173 
f 173//174 159//160 158//159 
f 174//175 159//160 173//174 
s 2
f 159//6 175//6 160//6 
f 174//6 175//6 159//6 
s 1
f 175//176 161//162 160//161 
f 176//177 161//162 175//176 
f 177//178 162//163 161//162 
f 176//177 177//178 161//162 
f 177//178 178//179 163//164 
f 162//163 177//178 163//164 
f 163//164 179//180 164//165 
f 163//164 178//179 179//180 
f 164//165 180//181 165//166 
f 164//165 179//180 180//181 
f 165//166 181//182 166//167 
f 165//166 180//181 181//182 
f 181//182 167//168 152//153 
f 166//167 181//182 152//153 
f 167//168 1//1 3//3 
s 2
f 3//6 5//5 168//169 
f 5//5 169//170 168//169 
f 7//8 169//170 5//5 
s 3
f 7//8 170//171 169//170 
f 8//9 170//171 7//8 
s 1
f 8//9 171//172 170//171 
f 10//11 171//172 8//9 
f 10//11 172//173 171//172 
f 13//14 172//173 10//11 
f 13//14 15//16 172//173 
f 15//16 173//174 172//173 
f 15//16 174//175 173//174 
f 17//18 174//175 15//16 
s 2
f 17//6 19//6 175//6 
f 174//6 17//6 175//6 
s 1
f 19//21 176//177 175//176 
f 20//20 176//177 19//21 
f 22//23 177//178 176//177 
f 20//20 22//23 176//177 
f 177//178 25//26 178//179 
f 177//178 22//23 25//26 
f 25//26 27//28 179//180 
f 178//179 25//26 179//180 
f 179//180 29//30 180//181 
f 179//180 27//28 29//30 
f 29//30 31//32 181//182 
f 180//181 29//30 181//182 
f 31//32 1//1 167//168 
f 181//182 31//32 167//168